<svg width="40" height="42" viewBox="0 0 40 42" fill="none" xmlns="http://www.w3.org/2000/svg">
<path d="M10.0506 33.4765C9.96346 33.4393 9.8889 33.3739 9.84525 33.2883C9.80159 33.2028 9.79215 33.1048 9.81944 33.0147C9.84674 32.9246 9.9089 32.8483 9.99269 32.8014C10.0765 32.7543 10.1748 32.7413 10.2679 32.7587C10.6238 32.8229 11.0046 32.8778 11.3691 32.9208C14.7165 33.2837 18.1109 33.2949 21.4709 33.2609C24.8386 33.2088 28.2017 33.0551 31.5777 32.6522C31.9519 32.6071 32.3287 32.558 32.7031 32.5056C32.7969 32.4924 32.8946 32.5098 32.9762 32.5605C33.0578 32.6111 33.1165 32.69 33.1398 32.7813C33.163 32.8726 33.1492 32.97 33.1018 33.0535C33.0544 33.1371 32.977 33.1991 32.8883 33.2324C32.527 33.3674 32.1599 33.4956 31.7927 33.616C28.4761 34.6985 24.9811 35.2083 21.4995 35.2607C18.0217 35.2961 14.5126 34.9398 11.1539 33.8845C10.7882 33.7645 10.4063 33.6278 10.0506 33.4765Z" fill="#FDB212"/>
<path d="M36.5015 31.3091C36.572 31.2461 36.622 31.1607 36.6364 31.0659C36.6508 30.971 36.629 30.8754 36.5749 30.7986C36.5207 30.7218 36.438 30.6691 36.3438 30.6509C36.2497 30.6325 36.1524 30.6509 36.0694 30.6961C35.7614 30.8624 35.4326 31.0328 35.1183 31.1867C32.2239 32.596 29.207 33.6521 26.1457 34.4519C23.0781 35.2455 19.942 35.7548 16.7167 35.896C16.3561 35.9114 16.001 35.9229 15.6372 35.9289C15.5426 35.9305 15.449 35.9625 15.3761 36.0249C15.3032 36.0872 15.2572 36.1738 15.248 36.2673C15.2388 36.3608 15.267 36.4548 15.3263 36.5302C15.3856 36.6056 15.4712 36.6552 15.5636 36.6753C15.9286 36.7531 16.2881 36.8215 16.6564 36.8816C19.9509 37.4246 23.3912 37.234 26.6472 36.388C29.9002 35.5402 32.9974 34.0754 35.6454 32.0218C35.932 31.7967 36.2298 31.5518 36.5015 31.3091Z" fill="#FDB212"/>
<path d="M34.8992 25.2701C34.95 25.1901 34.9745 25.094 34.962 24.9987C34.9496 24.9035 34.902 24.8174 34.8285 24.7585C34.755 24.6996 34.6606 24.6719 34.5649 24.6806C34.4692 24.6893 34.3808 24.7342 34.3138 24.8012C34.046 25.0688 33.7755 25.3259 33.4978 25.5777C31.0054 27.8412 28.0978 29.4573 24.9829 30.4459C21.8663 31.4371 18.5454 31.8216 15.1643 31.6888C14.7875 31.6738 14.4123 31.6527 14.0335 31.6248C13.939 31.6178 13.8428 31.6415 13.7646 31.6975C13.6865 31.7534 13.6331 31.8361 13.6159 31.9287C13.5988 32.0213 13.6189 32.1176 13.6718 32.1978C13.7246 32.2781 13.8059 32.3348 13.8966 32.3622C14.271 32.4741 14.6462 32.5754 15.0271 32.6667C18.4414 33.4908 22.1528 33.4494 25.5895 32.3516C29.0253 31.2723 32.1314 29.092 34.231 26.2392C34.466 25.9227 34.6873 25.6012 34.8992 25.2701Z" fill="#FDB212"/>
<path d="M34.0014 35.9825C34.0946 35.993 34.1847 36.0321 34.2521 36.0994C34.3195 36.1667 34.3587 36.2557 34.361 36.3487C34.3633 36.4416 34.3287 36.5324 34.2647 36.603C34.2007 36.6737 34.1127 36.7172 34.0201 36.7323C33.6204 36.7701 33.3017 36.7175 32.9889 36.68C30.1604 36.2197 27.5459 35.3087 24.9731 34.2919C22.4072 33.2599 19.923 32.0399 17.509 30.6711C17.24 30.5188 16.9667 30.3627 16.709 30.2112C16.628 30.1639 16.5614 30.0917 16.527 30.0028C16.4926 29.914 16.4928 29.8168 16.5283 29.7308C16.5638 29.6449 16.6323 29.5758 16.7193 29.5372C16.8064 29.4985 16.9046 29.4943 16.9953 29.518C17.2855 29.5927 17.5896 29.6759 17.8876 29.7591C20.5636 30.5058 23.1702 31.4111 25.7193 32.4363C28.268 33.445 30.7596 34.6636 33.2372 35.7243C33.4933 35.8292 33.8106 35.9429 34.0014 35.9825Z" fill="#FDB212"/>
<path d="M3.51494 3.99896C2.78311 1.25698 3.31781 -0.892198 4.64441 0.502876C4.95652 0.831134 5.68106 1.46261 6.1311 1.90211C7.54964 3.28751 13.1756 8.48877 21.8577 10.47C23.3573 8.1847 25.442 4.31161 29.9403 4.42472C33.6231 4.51755 34.9933 6.77726 35.5362 8.0913L39.5765 9.29603C39.5904 9.29879 40.0472 9.39168 39.5684 9.61624C39.0819 9.84436 37.7841 10.4524 36.2449 11.1345C34.4631 11.9243 35.7597 11.9427 32.8185 17.3959C26.9721 26.8616 17.7609 26.7891 13.6941 26.0457C10.489 29.2494 8.59261 31.2258 5.15842 30.9581C3.63951 30.8397 3.41556 30.1933 4.30609 29.8152C5.11661 29.4352 5.60709 29.0469 6.01746 28.6568C5.55849 28.8587 4.9271 28.9461 4.0446 28.989C2.55951 29.0317 1.62124 28.7062 1.29435 28.5377C0.180605 27.9754 0.630391 27.7618 1.75841 27.4895L3.45462 26.9715C5.03686 26.488 11.1867 23.8198 14.4858 20.0578C9.12793 19.6825 6.45825 17.5317 4.75141 15.3257C2.58296 12.3877 5.18188 14.1348 7.0292 13.9413C3.88769 12.4219 2.58944 8.94325 2.62762 7.42203C2.63368 7.18185 2.71572 7.10383 3.03596 7.11191C3.43625 7.122 4.07661 7.13814 5.98176 7.82699C5.97716 7.82235 4.18419 6.01603 3.51494 3.99896ZM31.7566 8.05758C31.226 8.04421 30.7851 8.46341 30.7718 8.994C30.7585 9.52452 31.1776 9.96547 31.7082 9.97884C32.2387 9.99219 32.6796 9.57292 32.693 9.04243C32.7064 8.51185 32.2872 8.07098 31.7566 8.05758Z" fill="#2C49C6"/>
</svg>
